<?xml version="1.0" encoding="UTF-8" standalone="no"?>
<svg
   xmlns:dc="http://purl.org/dc/elements/1.1/"
   xmlns:cc="http://creativecommons.org/ns#"
   xmlns:rdf="http://www.w3.org/1999/02/22-rdf-syntax-ns#"
   xmlns:svg="http://www.w3.org/2000/svg"
   xmlns="http://www.w3.org/2000/svg"
   id="svg2615"
   viewBox="0, 0, 128, 128"
   height="128"
   width="128"
   y="0px"
   x="0px"
   version="1.1">
  <metadata
     id="metadata2619">
    <rdf:RDF>
      <cc:Work
         rdf:about="">
        <dc:format>image/svg+xml</dc:format>
        <dc:type
           rdf:resource="http://purl.org/dc/dcmitype/StillImage" />
        <dc:title></dc:title>
      </cc:Work>
    </rdf:RDF>
  </metadata>
  <g
     id="Background">
    <rect
       id="rect2598"
       fill-opacity="0"
       fill="#000000"
       height="128"
       width="128"
       y="0"
       x="0" />
  </g>
  <g
     id="g2611">
    <path
       id="path2601"
       fill="#737370"
       d="M18.092,6 L109.903,6 C116.552,6 122,11.441 122,18.096 L122,109.902 C122,116.559 116.552,122 109.903,122 L18.092,122 C11.436,122 6,116.559 6,109.902 L6,18.096 C6,11.441 11.436,6 18.092,6" />
    <g
       style="fill:#ebeded;fill-opacity:1"
       id="g3507"
       transform="matrix(0.2,0,0,0.2,16.723377,16.512094)">
      <g
         style="fill:#ebeded;fill-opacity:1"
         id="g3505">
        <path
           style="fill:#ebeded;fill-opacity:1"
           id="path3503"
           d="m 327.417,301.136 c -1.498,-4.157 -6.082,-6.312 -10.238,-4.814 -4.157,1.498 -6.312,6.082 -4.814,10.238 0.037,0.102 0.076,0.203 0.117,0.304 7.296,19.04 7.824,33.6 1.44,40 -7.744,7.728 -27.032,5.312 -51.608,-6.448 -32.902,-17.084 -62.809,-39.402 -88.552,-66.08 -62.664,-62.672 -88.52,-124.168 -72.528,-140.16 5.103,-4.03 11.736,-5.578 18.096,-4.224 4.406,0.324 8.241,-2.986 8.565,-7.392 0.313,-4.259 -2.774,-8.013 -7.013,-8.528 -11.123,-1.968 -22.535,1.275 -30.96,8.8 -29.312,29.304 15.496,105.744 72.528,162.784 27.021,27.962 58.419,51.333 92.96,69.192 6.255,2.995 12.701,5.574 19.296,7.72 l -56.84,21.552 c -75.9,-28.856 -130.539,-96.144 -143.2,-176.352 -0.685,-4.365 -4.779,-7.349 -9.144,-6.664 -4.365,0.685 -7.349,4.779 -6.664,9.144 1.256,8 2.936,16 4.992,23.824 18.422,69.799 66.943,127.784 132.4,158.224 l -93.552,35.4 c -0.429,-0.716 -0.969,-1.358 -1.6,-1.904 -23.776,-19.089 -38.694,-47.084 -41.28,-77.464 l -3.712,-44.952 c -0.292,-4.355 -4.06,-7.649 -8.416,-7.357 -0.083,0.006 -0.166,0.012 -0.248,0.021 -4.404,0.35 -7.691,4.205 -7.341,8.609 10e-4,0.018 0.003,0.037 0.005,0.055 l 3.776,44.936 c 2.812,32.473 17.96,62.633 42.328,84.28 l -66.736,25.264 12,-49.248 c 1.047,-4.295 -1.585,-8.625 -5.88,-9.672 -4.295,-1.047 -8.625,1.585 -9.672,5.88 l -15.608,64 c -1.052,4.291 1.574,8.623 5.866,9.674 1.574,0.386 3.227,0.284 4.742,-0.29 l 296,-112 c 0.471,-0.23 0.916,-0.509 1.328,-0.832 6.406,-0.984 12.345,-3.946 16.984,-8.472 7.927,-7.928 14.751,-24.272 2.183,-57.048 z" />
      </g>
    </g>
    <g
       style="fill:#82d1f5;fill-opacity:1"
       id="g3513"
       transform="matrix(0.2,0,0,0.2,16.723377,16.512094)">
      <g
         style="fill:#82d1f5;fill-opacity:1"
         id="g3511">
        <path
           style="fill:#82d1f5;fill-opacity:1"
           id="path3509"
           d="m 402.913,280.504 c -43.247,-16.19 -89.99,-20.729 -135.544,-13.16 l -28.584,4.8 c -4.339,0.834 -7.18,5.027 -6.346,9.366 0.806,4.192 4.761,7.013 8.986,6.41 l 28.576,-4.76 c 42.782,-7.113 86.683,-2.847 127.296,12.368 0.901,0.319 1.852,0.479 2.808,0.472 4.418,0.007 8.006,-3.568 8.013,-7.987 0.006,-3.345 -2.07,-6.34 -5.205,-7.509 z" />
      </g>
    </g>
    <g
       style="fill:#82d1f5;fill-opacity:1"
       id="g3519"
       transform="matrix(0.2,0,0,0.2,16.723377,16.512094)">
      <g
         style="fill:#82d1f5;fill-opacity:1"
         id="g3517">
        <path
           style="fill:#82d1f5;fill-opacity:1"
           id="path3515"
           d="m 431.353,156.56 c -1.9,-3.99 -6.674,-5.684 -10.664,-3.784 l -168,80 c -3.989,1.899 -5.684,6.672 -3.785,10.662 0,0.001 0.001,0.002 0.001,0.002 1.899,3.989 6.672,5.684 10.662,3.785 10e-4,0 10e-4,-0.001 0.002,-0.001 l 168,-80 c 3.99,-1.9 5.684,-6.674 3.784,-10.664 z" />
      </g>
    </g>
    <g
       style="fill:#82d1f5;fill-opacity:1"
       id="g3525"
       transform="matrix(0.2,0,0,0.2,16.723377,16.512094)">
      <g
         style="fill:#82d1f5;fill-opacity:1"
         id="g3523">
        <path
           style="fill:#82d1f5;fill-opacity:1"
           id="path3521"
           d="m 194.377,54.296 c -0.88,-4.33 -5.103,-7.127 -9.433,-6.247 -4.33,0.88 -7.127,5.103 -6.247,9.433 0.019,0.096 0.041,0.191 0.064,0.286 10.126,45.239 5.953,92.507 -11.944,135.272 l -11.632,27.912 c -1.681,4.067 0.238,8.728 4.296,10.432 0.972,0.409 2.017,0.618 3.072,0.616 3.229,0 6.141,-1.94 7.384,-4.92 l 11.64,-27.88 c 19.175,-45.809 23.648,-96.443 12.8,-144.904 z" />
      </g>
    </g>
    <g
       style="fill:#82d1f5;fill-opacity:1"
       id="g3531"
       transform="matrix(0.2,0,0,0.2,16.723377,16.512094)">
      <g
         style="fill:#82d1f5;fill-opacity:1"
         id="g3529">
        <path
           style="fill:#82d1f5;fill-opacity:1"
           id="path3527"
           d="m 440.105,288 c -13.255,0 -24,10.745 -24,24 0,13.255 10.745,24 24,24 13.255,0 24,-10.745 24,-24 0,-13.255 -10.745,-24 -24,-24 z m 0,32 c -4.418,0 -8,-3.582 -8,-8 0,-4.418 3.582,-8 8,-8 4.418,0 8,3.582 8,8 0,4.418 -3.582,8 -8,8 z" />
      </g>
    </g>
    <g
       style="fill:#82d1f5;fill-opacity:1"
       id="g3537"
       transform="matrix(0.2,0,0,0.2,16.723377,16.512094)">
      <g
         style="fill:#82d1f5;fill-opacity:1"
         id="g3535">
        <path
           style="fill:#82d1f5;fill-opacity:1"
           id="path3533"
           d="m 248.105,64 c -13.255,0 -24,10.745 -24,24 0,13.255 10.745,24 24,24 13.255,0 24,-10.745 24,-24 0,-13.255 -10.745,-24 -24,-24 z m 0,32 c -4.418,0 -8,-3.582 -8,-8 0,-4.418 3.582,-8 8,-8 4.418,0 8,3.582 8,8 0,4.418 -3.582,8 -8,8 z" />
      </g>
    </g>
    <g
       style="fill:#82d1f5;fill-opacity:1"
       id="g3543"
       transform="matrix(0.2,0,0,0.2,16.723377,16.512094)">
      <g
         style="fill:#82d1f5;fill-opacity:1"
         id="g3541">
        <circle
           style="fill:#82d1f5;fill-opacity:1"
           id="circle3539"
           r="16"
           cy="16"
           cx="176.105" />
      </g>
    </g>
    <g
       style="fill:#82d1f5;fill-opacity:1"
       id="g3549"
       transform="matrix(0.2,0,0,0.2,16.723377,16.512094)">
      <g
         style="fill:#82d1f5;fill-opacity:1"
         id="g3547">
        <path
           style="fill:#82d1f5;fill-opacity:1"
           id="path3545"
           d="m 400.105,40 c -4.418,0 -8,3.582 -8,8 v 8 c 0,4.418 3.582,8 8,8 4.418,0 8,-3.582 8,-8 v -8 c 0,-4.418 -3.582,-8 -8,-8 z" />
      </g>
    </g>
    <g
       style="fill:#82d1f5;fill-opacity:1"
       id="g3555"
       transform="matrix(0.2,0,0,0.2,16.723377,16.512094)">
      <g
         style="fill:#82d1f5;fill-opacity:1"
         id="g3553">
        <path
           style="fill:#82d1f5;fill-opacity:1"
           id="path3551"
           d="m 400.105,0 c -4.418,0 -8,3.582 -8,8 v 8 c 0,4.418 3.582,8 8,8 4.418,0 8,-3.582 8,-8 V 8 c 0,-4.418 -3.582,-8 -8,-8 z" />
      </g>
    </g>
    <g
       style="fill:#82d1f5;fill-opacity:1"
       id="g3561"
       transform="matrix(0.2,0,0,0.2,16.723377,16.512094)">
      <g
         style="fill:#82d1f5;fill-opacity:1"
         id="g3559">
        <path
           style="fill:#82d1f5;fill-opacity:1"
           id="path3557"
           d="m 424.105,24 h -8 c -4.418,0 -8,3.582 -8,8 0,4.418 3.582,8 8,8 h 8 c 4.418,0 8,-3.582 8,-8 0,-4.418 -3.582,-8 -8,-8 z" />
      </g>
    </g>
    <g
       style="fill:#82d1f5;fill-opacity:1"
       id="g3567"
       transform="matrix(0.2,0,0,0.2,16.723377,16.512094)">
      <g
         style="fill:#82d1f5;fill-opacity:1"
         id="g3565">
        <path
           style="fill:#82d1f5;fill-opacity:1"
           id="path3563"
           d="m 384.105,24 h -8 c -4.418,0 -8,3.582 -8,8 0,4.418 3.582,8 8,8 h 8 c 4.418,0 8,-3.582 8,-8 0,-4.418 -3.582,-8 -8,-8 z" />
      </g>
    </g>
    <g
       style="fill:#82d1f5;fill-opacity:1"
       id="g3573"
       transform="matrix(0.2,0,0,0.2,16.723377,16.512094)">
      <g
         style="fill:#82d1f5;fill-opacity:1"
         id="g3571">
        <path
           style="fill:#82d1f5;fill-opacity:1"
           id="path3569"
           d="m 344.105,87.832 h -40.168 c -4.418,0 -8,3.582 -8,8 V 136 c 0,4.418 3.582,8 8,8 h 40.168 c 4.418,0 8,-3.582 8,-8 V 95.832 c 0,-4.418 -3.582,-8 -8,-8 z m -8,40.168 h -24.168 v -24.168 h 24.168 z" />
      </g>
    </g>
    <g
       style="fill:#82d1f5;fill-opacity:1"
       id="g3579"
       transform="matrix(0.2,0,0,0.2,16.723377,16.512094)">
      <g
         style="fill:#82d1f5;fill-opacity:1"
         id="g3577">
        <path
           style="fill:#82d1f5;fill-opacity:1"
           id="path3575"
           d="m 285.826,154.636 c -2.937,-3.135 -7.825,-3.391 -11.073,-0.58 l -80,72 c -3.282,2.956 -3.547,8.013 -0.592,11.296 2.956,3.282 8.013,3.547 11.296,0.592 l 80,-72 c 3.225,-3.021 3.39,-8.083 0.369,-11.308 z" />
      </g>
    </g>
    <g
       style="fill:#82d1f5;fill-opacity:1"
       id="g3585"
       transform="matrix(0.2,0,0,0.2,16.723377,16.512094)">
      <g
         style="fill:#82d1f5;fill-opacity:1"
         id="g3583">
        <path
           style="fill:#82d1f5;fill-opacity:1"
           id="path3581"
           d="m 432.105,184 c -4.418,0 -8,3.582 -8,8 v 8 c 0,4.418 3.582,8 8,8 4.418,0 8,-3.582 8,-8 v -8 c 0,-4.418 -3.582,-8 -8,-8 z" />
      </g>
    </g>
    <g
       style="fill:#82d1f5;fill-opacity:1"
       id="g3591"
       transform="matrix(0.2,0,0,0.2,16.723377,16.512094)">
      <g
         style="fill:#82d1f5;fill-opacity:1"
         id="g3589">
        <path
           style="fill:#82d1f5;fill-opacity:1"
           id="path3587"
           d="m 466.049,182.624 -5.656,-5.656 c -3.178,-3.07 -8.242,-2.982 -11.312,0.196 -2.994,3.1 -2.994,8.015 0,11.116 l 5.656,5.656 c 3.178,3.07 8.242,2.982 11.312,-0.196 2.995,-3.101 2.995,-8.016 0,-11.116 z" />
      </g>
    </g>
    <g
       style="fill:#82d1f5;fill-opacity:1"
       id="g3597"
       transform="matrix(0.2,0,0,0.2,16.723377,16.512094)">
      <g
         style="fill:#82d1f5;fill-opacity:1"
         id="g3595">
        <path
           style="fill:#82d1f5;fill-opacity:1"
           id="path3593"
           d="m 472.105,152 h -8 c -4.418,0 -8,3.582 -8,8 0,4.418 3.582,8 8,8 h 8 c 4.418,0 8,-3.582 8,-8 0,-4.418 -3.582,-8 -8,-8 z" />
      </g>
    </g>
    <g
       style="fill:#82d1f5;fill-opacity:1"
       id="g3603"
       transform="matrix(0.2,0,0,0.2,16.723377,16.512094)">
      <g
         style="fill:#82d1f5;fill-opacity:1"
         id="g3601">
        <path
           style="fill:#82d1f5;fill-opacity:1"
           id="path3599"
           d="m 465.853,126.064 c -3.1,-2.994 -8.015,-2.994 -11.116,0 l -5.656,5.656 c -3.124,3.125 -3.123,8.19 0.002,11.314 1.5,1.499 3.534,2.342 5.654,2.342 v 0 c 2.122,0 4.156,-0.844 5.656,-2.344 l 5.656,-5.656 c 3.07,-3.178 2.982,-8.243 -0.196,-11.312 z" />
      </g>
    </g>
    <g
       style="fill:#82d1f5;fill-opacity:1"
       id="g3609"
       transform="matrix(0.2,0,0,0.2,16.723377,16.512094)">
      <g
         style="fill:#82d1f5;fill-opacity:1"
         id="g3607">
        <path
           style="fill:#82d1f5;fill-opacity:1"
           id="path3605"
           d="m 432.105,112 c -4.418,0 -8,3.582 -8,8 v 8 c 0,4.418 3.582,8 8,8 4.418,0 8,-3.582 8,-8 v -8 c 0,-4.418 -3.582,-8 -8,-8 z" />
      </g>
    </g>
    <g
       style="fill:#82d1f5;fill-opacity:1"
       id="g3615"
       transform="matrix(0.2,0,0,0.2,16.723377,16.512094)">
      <g
         style="fill:#82d1f5;fill-opacity:1"
         id="g3613">
        <path
           style="fill:#82d1f5;fill-opacity:1"
           id="path3611"
           d="m 415.129,131.72 -5.656,-5.656 c -3.178,-3.069 -8.242,-2.982 -11.312,0.196 -2.994,3.1 -2.994,8.015 0,11.116 l 5.656,5.656 c 3.178,3.07 8.242,2.982 11.312,-0.196 2.995,-3.101 2.995,-8.016 0,-11.116 z" />
      </g>
    </g>
    <g
       style="fill:#82d1f5;fill-opacity:1"
       id="g3621"
       transform="matrix(0.2,0,0,0.2,16.723377,16.512094)">
      <g
         style="fill:#82d1f5;fill-opacity:1"
         id="g3619">
        <path
           style="fill:#82d1f5;fill-opacity:1"
           id="path3617"
           d="M 95.713,34.592 C 94.771,31.698 92.268,29.59 89.257,29.152 L 65.777,25.736 55.305,4.464 C 52.971,0.501 47.866,-0.82 43.903,1.514 42.685,2.231 41.67,3.246 40.953,4.464 l -10.52,21.272 -23.48,3.416 c -4.373,0.631 -7.406,4.688 -6.775,9.061 0.251,1.741 1.069,3.35 2.327,4.579 l 16.984,16.56 -4,23.384 c -0.768,4.351 2.136,8.501 6.487,9.269 1.752,0.309 3.556,0.026 5.129,-0.805 l 21,-11.072 21,11.04 c 3.911,2.056 8.748,0.553 10.804,-3.358 0.819,-1.557 1.101,-3.34 0.804,-5.074 l -4,-23.384 16.992,-16.56 c 2.175,-2.129 2.953,-5.307 2.008,-8.2 z m -33.208,16.24 c -1.884,1.835 -2.745,4.479 -2.304,7.072 L 62.185,69.464 51.825,64 c -2.329,-1.223 -5.111,-1.223 -7.44,0 l -10.4,5.456 1.984,-11.56 c 0.449,-2.583 -0.397,-5.223 -2.264,-7.064 L 25.297,42.648 36.905,40.96 c 2.606,-0.378 4.859,-2.015 6.024,-4.376 l 5.176,-10.504 5.184,10.504 c 1.164,2.359 3.413,3.995 6.016,4.376 l 11.6,1.688 z" />
      </g>
    </g>
    <g
       style="fill:#82d1f5;fill-opacity:1"
       id="g3627"
       transform="matrix(0.2,0,0,0.2,16.723377,16.512094)">
      <g
         style="fill:#82d1f5;fill-opacity:1"
         id="g3625">
        <path
           style="fill:#82d1f5;fill-opacity:1"
           id="path3623"
           d="m 453.081,401 h -0.032 l -3.296,-4.944 c -18.481,-27.637 -47.542,-46.429 -80.328,-51.944 -4.374,-0.624 -8.426,2.416 -9.05,6.79 -0.603,4.226 2.218,8.181 6.41,8.986 23.648,4.014 45.199,16.028 61.048,34.032 -13.325,2.397 -24.979,10.4 -32,21.976 -8.616,15.431 -3.091,34.924 12.34,43.54 15.431,8.616 34.924,3.091 43.54,-12.34 3.291,-6.353 5.068,-13.382 5.192,-20.536 8.512,12.363 9.193,28.508 1.752,41.544 -2.254,3.8 -1.001,8.708 2.799,10.962 3.8,2.254 8.708,1.001 10.962,-2.799 0.072,-0.122 0.141,-0.245 0.207,-0.371 14.648,-26.164 6.02,-59.225 -19.544,-74.896 z m -15.32,38.288 c -4.27,7.737 -14.003,10.547 -21.739,6.277 -7.736,-4.27 -10.547,-14.003 -6.277,-21.739 0.024,-0.043 0.048,-0.087 0.072,-0.13 4.721,-7.73 12.684,-12.912 21.664,-14.096 1.391,-0.038 2.768,0.282 4,0.928 6.752,3.768 7.112,20.104 2.28,28.76 z" />
      </g>
    </g>
    <g
       id="g3629"
       transform="matrix(0.2,0,0,0.2,16.723377,16.512094)" />
    <g
       id="g3631"
       transform="matrix(0.2,0,0,0.2,16.723377,16.512094)" />
    <g
       id="g3633"
       transform="matrix(0.2,0,0,0.2,16.723377,16.512094)" />
    <g
       id="g3635"
       transform="matrix(0.2,0,0,0.2,16.723377,16.512094)" />
    <g
       id="g3637"
       transform="matrix(0.2,0,0,0.2,16.723377,16.512094)" />
    <g
       id="g3639"
       transform="matrix(0.2,0,0,0.2,16.723377,16.512094)" />
    <g
       id="g3641"
       transform="matrix(0.2,0,0,0.2,16.723377,16.512094)" />
    <g
       id="g3643"
       transform="matrix(0.2,0,0,0.2,16.723377,16.512094)" />
    <g
       id="g3645"
       transform="matrix(0.2,0,0,0.2,16.723377,16.512094)" />
    <g
       id="g3647"
       transform="matrix(0.2,0,0,0.2,16.723377,16.512094)" />
    <g
       id="g3649"
       transform="matrix(0.2,0,0,0.2,16.723377,16.512094)" />
    <g
       id="g3651"
       transform="matrix(0.2,0,0,0.2,16.723377,16.512094)" />
    <g
       id="g3653"
       transform="matrix(0.2,0,0,0.2,16.723377,16.512094)" />
    <g
       id="g3655"
       transform="matrix(0.2,0,0,0.2,16.723377,16.512094)" />
    <g
       id="g3657"
       transform="matrix(0.2,0,0,0.2,16.723377,16.512094)" />
  </g>
  <defs
     id="defs2613" />
</svg>
