<?xml version="1.0" encoding="UTF-8" standalone="no"?>
<svg
   xmlns:dc="http://purl.org/dc/elements/1.1/"
   xmlns:cc="http://creativecommons.org/ns#"
   xmlns:rdf="http://www.w3.org/1999/02/22-rdf-syntax-ns#"
   xmlns:svg="http://www.w3.org/2000/svg"
   xmlns="http://www.w3.org/2000/svg"
   id="svg8"
   version="1.1"
   viewBox="0 0 285.75001 285.75001"
   height="1080"
   width="1080">
  <defs
     id="defs2">
    <marker
       orient="auto"
       refY="0"
       refX="0"
       id="Arrow1Mend"
       style="overflow:visible">
      <path
         id="path5322"
         d="M 0,0 5,-5 -12.5,0 5,5 Z"
         style="fill:#fa8f00;fill-opacity:1;fill-rule:evenodd;stroke:#fa8f00;stroke-width:1.00000003pt;stroke-opacity:1"
         transform="matrix(-0.4,0,0,-0.4,-4,0)" />
    </marker>
    <marker
       orient="auto"
       refY="0"
       refX="0"
       id="Arrow1Mend-4"
       style="overflow:visible">
      <path
         id="path5322-5"
         d="M 0,0 5,-5 -12.5,0 5,5 Z"
         style="fill:#fa8f00;fill-opacity:1;fill-rule:evenodd;stroke:#fa8f00;stroke-width:1.00000003pt;stroke-opacity:1"
         transform="matrix(-0.4,0,0,-0.4,-4,0)" />
    </marker>
  </defs>
  <metadata
     id="metadata5">
    <rdf:RDF>
      <cc:Work
         rdf:about="">
        <dc:format>image/svg+xml</dc:format>
        <dc:type
           rdf:resource="http://purl.org/dc/dcmitype/StillImage" />
        <dc:title></dc:title>
      </cc:Work>
    </rdf:RDF>
  </metadata>
  <rect
     y="-0.0035707499"
     x="0.0084436871"
     height="285.75"
     width="285.75"
     id="rect7624"
     style="fill:#c9ebfb;fill-opacity:1;stroke:none;stroke-width:18.2091732;stroke-linecap:round;stroke-miterlimit:4;stroke-dasharray:none;stroke-opacity:1;paint-order:markers stroke fill" />
  <path
     id="path1027"
     d="m 29.501362,37.014644 c 0,0 0,10.859354 0,15.001875 l 7.500938,7.500937 7.500937,-7.500937 c 0,-4.142521 0,-15.001875 0,-15.001875 z"
     style="fill:#fff0d3;stroke-width:0.50006253" />
  <path
     id="path1029"
     d="m 44.503237,52.016519 c 0,0 0,5.858735 0,10.001237 0,4.142521 -3.358418,7.500938 -7.500937,7.500938 -4.14252,0 -7.500938,-3.358417 -7.500938,-7.500938 0,-4.142502 0,-10.001237 0,-10.001237 z"
     style="fill:#ffcb63;stroke-width:0.50006253" />
  <path
     id="path1031"
     d="m 239.52761,37.014644 c 0,0 0,10.859354 0,15.001875 l 7.50093,7.500937 7.50095,-7.500937 c 0,-4.142521 0,-15.001875 0,-15.001875 z"
     style="fill:#fff0d3;stroke-width:0.50006253" />
  <path
     id="path1033"
     d="m 254.52949,52.016519 c 0,0 0,5.858735 0,10.001237 0,4.142521 -3.35843,7.500938 -7.50095,7.500938 -4.14252,0 -7.50093,-3.358417 -7.50093,-7.500938 0,-4.142502 0,-10.001237 0,-10.001237 z"
     style="fill:#ffcb63;stroke-width:0.50006253" />
  <path
     id="path1035"
     d="m 202.02292,142.02777 v 37.50469 c 12.42805,0 22.50282,-10.07476 22.50282,-22.50282 z"
     style="fill:#353535;stroke-width:0.50006253" />
  <path
     id="path1037"
     d="m 209.52386,157.02964 -7.50094,-15.00187 -22.50281,15.00187 c 0,12.42806 10.07475,22.50282 22.50281,22.50282 4.14252,0 7.50094,-10.07476 7.50094,-22.50282 z"
     style="fill:#4f4f4f;stroke-width:0.50006253" />
  <path
     id="path1039"
     d="m 214.52448,97.02214 h -15.00186 l 10.00124,60.0075 h 15.00188 v -50.00626 c 0,-5.52368 -4.47757,-10.00124 -10.00126,-10.00124 z"
     style="fill:#dbf4ff;stroke-width:0.50006253" />
  <path
     id="path1041"
     d="m 199.52262,97.02214 h -10.00126 c -5.52369,0 -10.00125,4.47756 -10.00125,10.00124 v 50.00626 h 30.00375 v -50.00626 c 0,-5.52368 -4.47756,-10.00124 -10.00124,-10.00124 z"
     style="fill:#ffffff;stroke-width:0.50006253" />
  <path
     id="path1043"
     d="m 203.33858,37.014644 v 45.005621 c 12.42806,0 22.50282,-10.074754 22.50282,-22.502809 0,-12.428054 -10.07476,-22.502812 -22.50282,-22.502812 z"
     style="fill:#60312c;stroke-width:0.50006253" />
  <path
     id="path1045"
     d="m 210.83953,59.517456 c 0,-12.428054 -3.35842,-22.502812 -7.50095,-22.502812 -12.42804,0 -22.5028,10.074758 -22.5028,22.502812 0,12.428055 10.07476,22.502809 22.5028,22.502809 4.14302,0 7.50095,-10.074754 7.50095,-22.502809 z"
     style="fill:#85453d;stroke-width:0.50006253" />
  <circle
     id="circle1047"
     r="11.251406"
     cy="25.763235"
     cx="82.007927"
     style="fill:#ff8646;stroke-width:0.50006253" />
  <path
     id="path1049"
     d="m 82.007925,142.02777 v 37.50469 c 12.428054,0 22.502815,-10.07476 22.502815,-22.50282 z"
     style="fill:#353535;stroke-width:0.50006253" />
  <path
     id="path1051"
     d="m 89.508862,157.02964 -7.500937,-15.00187 -22.502813,15.00187 c 0,12.42806 10.074758,22.50282 22.502813,22.50282 4.14252,0 7.500937,-10.07476 7.500937,-22.50282 z"
     style="fill:#4f4f4f;stroke-width:0.50006253" />
  <path
     id="path1053"
     d="M 94.509481,97.02214 H 79.507606 l 10.001256,60.0075 h 15.001878 v -50.00626 c 0,-5.52368 -4.47756,-10.00124 -10.001259,-10.00124 z"
     style="fill:#dbf4ff;stroke-width:0.50006253" />
  <path
     id="path1055"
     d="M 79.507606,97.02214 H 69.506368 c -5.523695,0 -10.001256,4.47756 -10.001256,10.00124 v 50.00626 h 30.00375 v -50.00626 c 0,-5.52368 -4.477561,-10.00124 -10.001256,-10.00124 z"
     style="fill:#ffffff;stroke-width:0.50006253" />
  <path
     id="path1057"
     d="M 82.007925,37.014644 V 87.520948 L 104.51074,64.518076 v -5.000619 c 0,-12.428054 -10.074761,-22.502813 -22.502815,-22.502813 z"
     style="fill:#ffb4a9;stroke-width:0.50006253" />
  <path
     id="path1059"
     d="m 82.007925,37.014644 c -12.428055,0 -22.502813,10.074758 -22.502813,22.502812 v 5.000619 l 30.00375,23.002873 V 59.517456 c 0,-12.428054 -3.358417,-22.502812 -7.500937,-22.502812 z"
     style="fill:#ffd9d4;stroke-width:0.50006253" />
  <path
     id="path1061"
     d="m 91.363595,64.518076 c -0.526573,-0.7866 -1.151653,-1.501189 -1.854733,-2.130767 L 82.007925,97.02214 c 12.428054,0 22.502815,-10.074753 22.502815,-22.502808 V 64.518076 Z"
     style="fill:#ff6337;stroke-width:0.50006253" />
  <path
     id="path1063"
     d="M 89.508862,74.519331 V 62.387308 c -1.990756,-1.783215 -4.618083,-2.869852 -7.500937,-2.869852 -3.900979,0 -7.336924,1.985748 -9.355671,5.000619 H 59.505112 v 10.001256 c 0,12.428056 10.074758,22.502809 22.502813,22.502809 4.14252,0 7.500937,-10.074753 7.500937,-22.502809 z"
     style="fill:#ff8646;stroke-width:0.50006253" />
  <path
     id="path1065"
     d="m 142.01542,142.02777 v 37.50469 c 12.42805,0 22.50282,-10.07476 22.50282,-22.50282 z"
     style="fill:#4f4f4f;stroke-width:0.50006253" />
  <path
     id="path1067"
     d="m 149.51636,157.02964 -7.50094,-15.00187 -22.50281,15.00187 c 0,12.42806 10.07475,22.50282 22.50281,22.50282 4.14252,0 7.50094,-10.07476 7.50094,-22.50282 z"
     style="fill:#696969;stroke-width:0.50006253" />
  <rect
     id="rect1069"
     height="59.997505"
     width="25.003124"
     style="fill:#ffffff;stroke-width:0.50006253"
     y="97.022118"
     x="129.51389" />
  <path
     id="path1071"
     d="m 154.517,97.02214 -12.50158,14.99587 h -15.00188 l 15.00188,30.00976 12.50158,14.99137 10.00124,0.0113 V 107.0241 c 0,-5.52368 -4.47757,-10.001244 -10.00124,-10.001244 z"
     style="fill:#696969;stroke-width:0.50006253" />
  <path
     id="path1073"
     d="m 129.51386,97.02214 c -5.52369,0 -10.00125,4.47756 -10.00125,10.00124 v 50.00626 l 10.00125,-0.0113 12.50156,-14.99187 V 112.0173 Z"
     style="fill:#999999;stroke-width:0.50006253" />
  <path
     id="path1075"
     d="m 142.01542,37.014644 v 45.005621 c 12.42805,0 22.50282,-10.074754 22.50282,-22.502809 0,-12.428054 -10.07477,-22.502812 -22.50282,-22.502812 z"
     style="fill:#ff8d7e;stroke-width:0.50006253" />
  <path
     id="path1077"
     d="m 149.51636,59.517456 c 0,-12.428054 -3.35842,-22.502812 -7.50094,-22.502812 -12.42806,0 -22.50281,10.074758 -22.50281,22.502812 0,12.428055 10.07475,22.502809 22.50281,22.502809 4.14252,0 7.50094,-10.074754 7.50094,-22.502809 z"
     style="fill:#ffb4a9;stroke-width:0.50006253" />
  <circle
     style="stroke-width:0.50006253"
     id="circle1079"
     r="3.750469"
     cy="127.02087"
     cx="142.01543" />
  <path
     style="stroke-width:0.50006253"
     id="path1081"
     d="m 228.27619,157.02964 v -46.25578 h 26.2533 c 6.20377,0 11.25139,-5.04762 11.25139,-11.251412 0,-6.203781 -5.04762,-11.251404 -11.25139,-11.251404 h -3.75048 V 72.624096 c 4.36504,-1.548194 7.50093,-5.717212 7.50093,-10.60634 V 37.014644 c 0,-2.071762 -1.6787,-3.750478 -3.75045,-3.750478 h -15.00188 c -2.07176,0 -3.75048,1.678716 -3.75048,3.750478 v 25.003112 c 0,4.889128 3.13591,9.058146 7.50093,10.60634 v 15.646948 h -3.75045 c -2.07176,0 -3.75048,1.678716 -3.75048,3.750462 0,2.071764 1.67872,3.75048 3.75048,3.75048 h 15.00188 c 2.06826,0 3.75045,1.682208 3.75045,3.750462 0,2.068262 -1.68219,3.750472 -3.75045,3.750472 h -26.77735 c -1.63722,-5.764726 -6.94537,-10.001251 -13.22766,-10.001251 h -25.00312 c -6.28228,0 -11.59044,4.236525 -13.22765,10.001251 h -8.54907 c -1.63471,-5.756707 -6.93087,-9.988741 -13.20165,-10.000747 -0.0261,-5.04e-4 -25.02913,-5.04e-4 -25.02913,-5.04e-4 -0.0215,5.04e-4 -0.0304,9e-4 -0.039,9e-4 -6.26529,0.01701 -11.55495,4.247532 -13.18864,10.000251 h -8.54908 c -1.18915,-4.188033 -4.31552,-7.566948 -8.346536,-9.10314 5.435186,-4.813101 8.870596,-11.836467 8.870596,-19.650448 V 59.517357 c 0,-10.483319 -6.17877,-19.547457 -15.084368,-23.75248 2.381287,-2.65632 3.832977,-6.16227 3.832977,-10.001748 0,-8.272039 -6.729836,-15.001875 -15.001875,-15.001875 -8.272038,0 -15.001875,6.729836 -15.001875,15.001875 0,3.839478 1.45169,7.345428 3.832977,10.001748 -8.905605,4.205023 -15.084382,13.269161 -15.084382,23.75248 v 15.001875 c 0,7.813981 3.435424,14.836861 8.87061,19.650448 -4.031011,1.536192 -7.157396,4.91562 -8.346544,9.10314 H 29.501362 c -2.068259,0 -3.750469,-1.68221 -3.750469,-3.750471 0,-2.068254 1.68221,-3.750462 3.750469,-3.750462 h 15.001875 c 2.07126,0 3.75047,-1.678716 3.75047,-3.75048 0,-2.071746 -1.67921,-3.750462 -3.75047,-3.750462 H 40.752768 V 72.624096 c 4.365046,-1.548194 7.500939,-5.717212 7.500939,-10.60634 V 37.014644 c 0,-2.071762 -1.67921,-3.750478 -3.75047,-3.750478 H 29.501362 c -2.071259,0 -3.750469,1.678716 -3.750469,3.750478 v 25.003112 c 0,4.889128 3.135891,9.058146 7.500937,10.60634 v 15.646948 h -3.750468 c -6.204277,0 -11.251406,5.047623 -11.251406,11.251404 0,6.203792 5.047129,11.251412 11.251406,11.251412 h 26.253283 v 46.25578 c 0,7.1354 2.865361,13.61171 7.500945,18.34829 v 36.48056 l -38.972881,13.38568 c -1.51519,0.52056 -2.532316,1.94574 -2.532316,3.54743 v 15.00189 c 0,2.07175 1.67921,3.75047 3.750468,3.75047 2.071258,0 3.750469,-1.67872 3.750469,-3.75047 v -12.32455 l 38.972881,-13.38566 c 1.515175,-0.52056 2.532317,-1.94575 2.532317,-3.54745 v -33.79171 c 3.412414,1.6257 7.226887,2.53831 11.251397,2.53831 4.024509,0 7.838982,-0.91261 11.251415,-2.53831 v 77.29815 c 0,1.6147 1.033131,3.04788 2.564314,3.55794 l 15.001866,5.00063 c 0.38506,0.12852 0.7856,0.19252 1.18615,0.19252 0.40055,0 0.8011,-0.0641 1.18615,-0.19252 l 15.00187,-5.00063 c 1.53121,-0.51057 2.56433,-1.94373 2.56433,-3.55794 v -77.29766 c 3.41242,1.6257 7.22691,2.53831 11.2514,2.53831 4.02451,0 7.83898,-0.91261 11.25142,-2.53831 v 77.29766 c 0,1.6147 1.03262,3.04788 2.56431,3.55794 l 15.00187,5.00063 c 0.38555,0.12852 0.7856,0.19252 1.18615,0.19252 0.40055,0 0.8011,-0.0641 1.18615,-0.19252 l 15.00187,-5.00063 c 1.53121,-0.51057 2.56433,-1.94373 2.56433,-3.55794 v -77.29766 c 3.41242,1.6257 7.22691,2.53831 11.2514,2.53831 4.02451,0 7.83898,-0.91261 11.25139,-2.53831 v 33.79173 c 0,1.60169 1.01715,3.02687 2.53183,3.54743 l 38.97338,13.38517 v 12.32455 c 0,2.07175 1.67871,3.75047 3.75047,3.75047 2.07174,0 3.75046,-1.67872 3.75046,-3.75047 V 228.7916 c 0,-1.60169 -1.01712,-3.02687 -2.53181,-3.54743 L 220.77526,211.859 v -36.48107 c 4.63558,-4.73709 7.50093,-11.21289 7.50093,-18.34829 z M 243.27806,40.765103 h 7.50095 v 21.252653 c 0,2.068265 -1.6822,3.750478 -3.75047,3.750478 -2.06826,0 -3.75048,-1.682213 -3.75048,-3.750478 z m -210.02623,0 h 7.500938 v 21.252653 c 0,2.068265 -1.68221,3.750478 -3.750468,3.750478 -2.06826,0 -3.75047,-1.682213 -3.75047,-3.750478 z M 189.52136,100.7726 h 8.75111 v 41.25517 c 0,2.07176 1.67869,3.75046 3.75045,3.75046 2.07176,0 3.75048,-1.6787 3.75048,-3.75046 V 100.7726 h 8.75108 c 3.44693,0 6.25078,2.80385 6.25078,6.25078 v 46.25579 h -37.50467 v -46.25579 c 0,-3.44693 2.80385,-6.25078 6.25077,-6.25078 z m -43.01188,0 -4.49406,5.39269 -4.49406,-5.39269 z m -18.57681,0.21053 11.2019,13.4422 c 0.71259,0.8551 1.76821,1.34915 2.88136,1.34915 1.11314,0 2.16876,-0.49405 2.88136,-1.34915 l 11.20191,-13.4422 c 2.68232,0.7031 4.66957,3.1409 4.66957,6.04025 v 46.25579 h -4.48557 l -11.38591,-13.6627 c -0.7126,-0.85511 -1.76822,-1.34917 -2.88136,-1.34917 -1.11315,0 -2.16877,0.49406 -2.88136,1.34917 l -11.38592,13.6627 h -4.48556 v -46.25579 c 0,-2.89935 1.98724,-5.33715 4.66958,-6.04025 z m 18.58531,52.29604 h -9.00513 l 4.50257,-5.40318 z M 74.506987,25.763229 c 0,-4.13602 3.364918,-7.500938 7.500938,-7.500938 4.136019,0 7.500937,3.364918 7.500937,7.500938 0,4.136018 -3.364918,7.500937 -7.500937,7.500937 -4.13602,0 -7.500938,-3.364919 -7.500938,-7.500937 z m 7.500938,15.001874 c 10.340303,0 18.752355,8.41205 18.752355,18.752354 v 1.250159 h -7.570454 c -2.826363,-3.162896 -6.873854,-5.000638 -11.181901,-5.000638 -4.308029,0 -8.355048,1.837742 -11.181902,5.000638 H 63.25559 v -1.25016 c 0,-10.340303 8.41205,-18.752353 18.752335,-18.752353 z M 63.25559,74.519331 v -6.250777 h 9.397175 c 1.251142,0 2.420296,-0.624079 3.116383,-1.664221 1.398676,-2.089263 3.730973,-3.336417 6.238777,-3.336417 2.507822,0 4.840101,1.247155 6.238776,3.336417 0.696087,1.040142 1.865241,1.664221 3.116402,1.664221 h 9.397177 v 6.250777 c 0,10.340281 -8.412052,18.752338 -18.752355,18.752338 -10.340285,0 -18.752335,-8.412057 -18.752335,-18.752338 z m 6.250778,26.253269 h 8.751097 v 41.25517 c 0,2.07176 1.679209,3.75046 3.75046,3.75046 2.071251,0 3.750478,-1.6787 3.750478,-3.75046 V 100.7726 h 8.751078 c 3.446944,0 6.250799,2.80385 6.250799,6.25078 v 46.25579 H 63.25559 v -46.25579 c 0,-3.44693 2.803834,-6.25078 6.250778,-6.25078 z m -5.873231,60.0075 h 36.750083 c -1.742218,8.54908 -9.318661,15.00188 -18.374785,15.00188 -9.056143,0 -16.633096,-6.4528 -18.375298,-15.00188 z m 48.378533,98.30981 -11.25139,-3.75048 v -79.9615 c 4.63556,-4.73658 7.50094,-11.21289 7.50094,-18.34829 v -46.25578 h 7.50093 v 46.25578 c 0,7.1354 2.86536,13.61171 7.50094,18.34829 v 79.9615 z m 11.62896,-98.30981 h 36.75009 c -1.74222,8.54908 -9.31866,15.00188 -18.37479,15.00188 -9.05614,0 -16.63308,-6.4528 -18.3753,-15.00188 z m 48.37854,98.30981 -11.2514,-3.75048 v -79.9615 c 4.63557,-4.73658 7.50095,-11.21289 7.50095,-18.34829 v -46.25578 h 7.50093 v 46.25578 c 0,7.1354 2.86536,13.6112 7.50094,18.34829 v 79.9615 z m 11.62896,-98.30981 h 36.75009 c -1.74222,8.54908 -9.31866,15.00188 -18.37479,15.00188 -9.05614,0 -16.63308,-6.4528 -18.3753,-15.00188 z" />
  <path
     style="stroke-width:0.50006253"
     id="path1083"
     d="m 177.64487,49.01363 1.32216,0.763106 c -1.20914,3.01438 -1.88122,6.299276 -1.88122,9.740721 0,14.475812 11.77748,26.25327 26.25329,26.25327 14.4758,0 26.25327,-11.777458 26.25327,-26.25327 0,-3.440934 -0.67209,-6.726341 -1.88125,-9.740721 l 1.32168,-0.763106 c 1.79372,-1.035625 2.40829,-3.329405 1.37266,-5.123128 -1.03613,-1.794234 -3.33042,-2.407311 -5.12314,-1.37267 l -1.33166,0.768588 c -1.28367,-1.626704 -2.75435,-3.097389 -4.38054,-4.380548 l 0.7691,-1.332166 c 1.03562,-1.794215 0.42105,-4.088014 -1.37268,-5.123148 -1.79523,-1.037118 -4.08801,-0.421545 -5.12315,1.372689 l -0.76308,1.32215 c -1.89875,-0.761595 -3.904,-1.309147 -5.99024,-1.609185 v -1.522206 c 0,-2.071761 -1.67872,-3.750459 -3.75048,-3.750459 -2.07176,0 -3.75046,1.678698 -3.75046,3.750459 v 1.522206 c -2.08577,0.300038 -4.09153,0.84759 -5.99026,1.609185 l -0.76309,-1.32215 c -1.03513,-1.794234 -3.32891,-2.407804 -5.12315,-1.372689 -1.79372,1.035134 -2.40829,3.328933 -1.37266,5.123148 l 0.76909,1.332166 c -1.6267,1.283669 -3.09738,2.754354 -4.38105,4.381058 l -1.33166,-0.769098 c -1.79524,-1.035134 -4.08802,-0.421564 -5.12315,1.37267 -1.03662,1.793723 -0.42206,4.087503 1.37167,5.123128 z m 25.69423,29.256164 c -10.3403,0 -18.75236,-8.412053 -18.75236,-18.752337 0,-10.340304 8.41206,-18.752354 18.75236,-18.752354 10.34029,0 18.75233,8.41205 18.75233,18.752354 0,10.340284 -8.41204,18.752337 -18.75233,18.752337 z" />
  <path
     style="stroke-width:0.50006253"
     id="path1085"
     d="m 142.01542,85.770727 c 14.47582,0 26.2533,-11.777458 26.2533,-26.25327 0,-14.475813 -11.77748,-26.253291 -26.2533,-26.253291 -14.4763,0 -26.25327,11.777478 -26.25327,26.253291 0,14.475812 11.77697,26.25327 26.25327,26.25327 z m 0,-45.005624 c 10.34031,0 18.75235,8.41205 18.75235,18.752354 0,10.340284 -8.41204,18.752337 -18.75235,18.752337 -10.34028,0 -18.75233,-8.412053 -18.75233,-18.752337 0,-10.340304 8.41205,-18.752354 18.75233,-18.752354 z" />
  <g
     id="g1087"
     transform="matrix(0.50006251,0,0,0.50006251,13.999423,10.761354)" />
  <g
     id="g1089"
     transform="matrix(0.50006251,0,0,0.50006251,13.999423,10.761354)" />
  <g
     id="g1091"
     transform="matrix(0.50006251,0,0,0.50006251,13.999423,10.761354)" />
  <g
     id="g1093"
     transform="matrix(0.50006251,0,0,0.50006251,13.999423,10.761354)" />
  <g
     id="g1095"
     transform="matrix(0.50006251,0,0,0.50006251,13.999423,10.761354)" />
  <g
     id="g1097"
     transform="matrix(0.50006251,0,0,0.50006251,13.999423,10.761354)" />
  <g
     id="g1099"
     transform="matrix(0.50006251,0,0,0.50006251,13.999423,10.761354)" />
  <g
     id="g1101"
     transform="matrix(0.50006251,0,0,0.50006251,13.999423,10.761354)" />
  <g
     id="g1103"
     transform="matrix(0.50006251,0,0,0.50006251,13.999423,10.761354)" />
  <g
     id="g1105"
     transform="matrix(0.50006251,0,0,0.50006251,13.999423,10.761354)" />
  <g
     id="g1107"
     transform="matrix(0.50006251,0,0,0.50006251,13.999423,10.761354)" />
  <g
     id="g1109"
     transform="matrix(0.50006251,0,0,0.50006251,13.999423,10.761354)" />
  <g
     id="g1111"
     transform="matrix(0.50006251,0,0,0.50006251,13.999423,10.761354)" />
  <g
     id="g1113"
     transform="matrix(0.50006251,0,0,0.50006251,13.999423,10.761354)" />
  <g
     id="g1115"
     transform="matrix(0.50006251,0,0,0.50006251,13.999423,10.761354)" />
</svg>
